<?xml version="1.0" encoding="utf-8"?>
<!-- Generator: Adobe Illustrator 24.1.2, SVG Export Plug-In . SVG Version: 6.00 Build 0)  -->
<svg version="1.1" id="_x2018_ëîé_x5F_1" xmlns="http://www.w3.org/2000/svg" xmlns:xlink="http://www.w3.org/1999/xlink"
	 x="0px" y="0px" viewBox="0 0 4000 4000" style="enable-background:new 0 0 4000 4000;" xml:space="preserve">
<style type="text/css">
	.st0{display:none;fill:#FFFFFF;}
	.st1{fill:#DADADA;}
	.st2{fill:#B2B2B2;}
</style>
<g>
	<rect class="st0" width="4000" height="4000"/>
	<g>
		<path class="st1" d="M3057.18,2000c0,335.3-156.08,634.13-399.56,827.79c-180.51,143.62-409.02,229.4-657.63,229.4
			s-477.12-85.78-657.62-229.4C1098.9,2634.13,942.82,2335.3,942.82,2000c0-583.85,473.33-1057.18,1057.18-1057.18
			S3057.18,1416.15,3057.18,2000z"/>
		<circle class="st2" cx="2000" cy="1926.14" r="410.87"/>
		<path class="st2" d="M2657.63,2827.79c-180.51,143.62-409.02,229.4-657.63,229.4s-477.12-85.78-657.62-229.4
			c132.17-194.17,377.22-324.59,657.62-324.59S2525.45,2633.62,2657.63,2827.79z"/>
	</g>
</g>
</svg>
