<svg id="Capa_1" enable-background="new 0 0 512 512" height="512" viewBox="0 0 512 512" width="512" xmlns="http://www.w3.org/2000/svg"><g><path d="m362 0h-307c-30.327 0-55 24.673-55 55v25h362z"/><path d="m457 0h-65v80h120v-25c0-30.327-24.673-55-55-55z"/><circle cx="266" cy="391" r="40"/><path d="m95.047 377.02c7.174 0 13.01-5.836 13.01-13.01s-5.836-13.01-13.01-13.01h-19.047v26.047c4.954.012 15.367-.022 19.047-.027z"/><path d="m117.037 413.965c0-9.328-7.589-16.917-16.917-16.917-5.817-.002-18.508-.005-24.121.032v33.878c8.416-.034 19.736-.076 24.121-.076 9.328 0 16.917-7.589 16.917-16.917z"/><path d="m0 457c0 30.327 24.673 55 55 55h402c30.327 0 55-24.673 55-55v-347h-512zm199.056-6.084c-11.354.063-19.101.089-24.421.089-10.982 0-11.628-.111-12.341-.233-4.801-.823-8.31-4.985-8.31-9.856v-99.916c0-5.523 4.477-10 10-10s10 4.477 10 10v90c6.774-.001 16.205-.036 24.961-.084h.057c5.497 0 9.968 4.44 9.999 9.944.03 5.523-4.422 10.025-9.945 10.056zm66.944.084c-33.084 0-60-26.916-60-60s26.916-60 60-60 60 26.916 60 60-26.916 60-60 60zm173.079-95.863c-3.091 4.576-9.306 5.781-13.884 2.688-6.609-4.465-14.34-6.825-22.357-6.825-22.056 0-40 17.944-40 40s17.944 40 40 40c20.124 0 29.574-14.565 32.298-30h-19.05c-5.523 0-10-4.477-10-10s4.477-10 10-10h29.914c5.523 0 10 4.477 10 10 0 35.327-21.861 60-53.163 60-33.084 0-60-26.916-60-60s26.916-60 60-60c12.022 0 23.625 3.545 33.554 10.253 4.576 3.092 5.78 9.308 2.688 13.884zm-358.079-164.137c0-8.284 6.716-15 15-15h320c8.284 0 15 6.716 15 15v80c0 8.284-6.716 15-15 15h-320c-8.284 0-15-6.716-15-15zm-25 150c0-5.523 4.477-10 10-10h29.047c18.202 0 33.01 14.808 33.01 33.01 0 7.436-2.474 14.304-6.638 19.829 9.44 6.694 15.618 17.698 15.618 30.125 0 20.356-16.561 36.917-36.917 36.917-7.266 0-33.809.117-34.076.119-.015 0-.03 0-.044 0-2.644 0-5.181-1.047-7.055-2.913-1.885-1.877-2.945-4.427-2.945-7.087z"/><path d="m111 206h290v50h-290z"/></g></svg>