<?xml version="1.0" encoding="UTF-8" standalone="no"?>
<!-- Created with Inkscape (http://www.inkscape.org/) -->

<svg
   version="1.1"
   id="svg1380"
   xml:space="preserve"
   width="682.66669"
   height="682.66669"
   viewBox="0 0 682.66669 682.66669"
   xmlns="http://www.w3.org/2000/svg"
   xmlns:svg="http://www.w3.org/2000/svg"><defs
     id="defs1384"><clipPath
       clipPathUnits="userSpaceOnUse"
       id="clipPath1394"><path
         d="M 0,512 H 512 V 0 H 0 Z"
         id="path1392" /></clipPath></defs><g
     id="g1386"
     transform="matrix(1.3333333,0,0,-1.3333333,0,682.66667)"><g
       id="g1388"><g
         id="g1390"
         clip-path="url(#clipPath1394)"><g
           id="g1396"
           transform="translate(497,377)"><path
             d="m 0,0 h -482 v -332 c 0,-16.568 13.432,-30 30,-30 h 422 c 16.568,0 30,13.432 30,30 z"
             style="fill:none;stroke:#000000;stroke-width:30;stroke-linecap:round;stroke-linejoin:round;stroke-miterlimit:10;stroke-dasharray:none;stroke-opacity:1"
             id="path1398" /></g><g
           id="g1400"
           transform="translate(497,377)"><path
             d="m 0,0 h -482 v 90 c 0,16.568 13.432,30 30,30 h 422 c 16.568,0 30,-13.432 30,-30 z"
             style="fill:none;stroke:#000000;stroke-width:30;stroke-linecap:round;stroke-linejoin:round;stroke-miterlimit:10;stroke-dasharray:none;stroke-opacity:1"
             id="path1402" /></g><g
           id="g1404"
           transform="translate(76,437)"><path
             d="M 0,0 H 20"
             style="fill:none;stroke:#000000;stroke-width:30;stroke-linecap:round;stroke-linejoin:round;stroke-miterlimit:10;stroke-dasharray:none;stroke-opacity:1"
             id="path1406" /></g><g
           id="g1408"
           transform="translate(156,437)"><path
             d="M 0,0 H 20"
             style="fill:none;stroke:#000000;stroke-width:30;stroke-linecap:round;stroke-linejoin:round;stroke-miterlimit:10;stroke-dasharray:none;stroke-opacity:1"
             id="path1410" /></g><g
           id="g1412"
           transform="translate(236,437)"><path
             d="M 0,0 H 20"
             style="fill:none;stroke:#000000;stroke-width:30;stroke-linecap:round;stroke-linejoin:round;stroke-miterlimit:10;stroke-dasharray:none;stroke-opacity:1"
             id="path1414" /></g><g
           id="g1416"
           transform="translate(162.4287,245)"><path
             d="m 0,0 v -99.916 c 1.105,-0.189 35.018,0 35.018,0"
             style="fill:none;stroke:#000000;stroke-width:20;stroke-linecap:round;stroke-linejoin:round;stroke-miterlimit:10;stroke-dasharray:none;stroke-opacity:1"
             id="path1418" /></g><g
           id="g1420"
           transform="translate(113.4492,221.9897)"><path
             d="m 0,0 c 0,-12.708 -10.302,-23.01 -23.01,-23.01 -6.302,0 -29.048,-0.102 -29.048,-0.102 V 0 23.01 H -23.01 C -10.302,23.01 0,12.708 0,0 Z"
             style="fill:none;stroke:#000000;stroke-width:20;stroke-linecap:round;stroke-linejoin:round;stroke-miterlimit:10;stroke-dasharray:none;stroke-opacity:1"
             id="path1422" /></g><g
           id="g1424"
           transform="translate(122.4287,172.0356)"><path
             d="m 0,0 c 0,-14.866 -12.051,-26.917 -26.917,-26.917 -7.372,0 -34.12,-0.119 -34.12,-0.119 V 0 26.917 h 34.12 C -12.051,26.917 0,14.866 0,0 Z"
             style="fill:none;stroke:#000000;stroke-width:20;stroke-linecap:round;stroke-linejoin:round;stroke-miterlimit:10;stroke-dasharray:none;stroke-opacity:1"
             id="path1426" /></g><g
           id="g1428"
           transform="translate(435.4014,236.4609)"><path
             d="m 0,0 c -7.98,5.391 -17.601,8.539 -27.955,8.539 -27.614,0 -50,-22.386 -50,-50 0,-27.614 22.386,-50 50,-50 27.614,0 43.162,22.386 43.162,50 h -29.915"
             style="fill:none;stroke:#000000;stroke-width:20;stroke-linecap:round;stroke-linejoin:round;stroke-miterlimit:10;stroke-dasharray:none;stroke-opacity:1"
             id="path1430" /></g><g
           id="g1432"
           transform="translate(317.4463,195)"><path
             d="m 0,0 c 0,-27.614 -22.386,-50 -50,-50 -27.614,0 -50,22.386 -50,50 0,27.614 22.386,50 50,50 C -22.386,50 0,27.614 0,0 Z"
             style="fill:none;stroke:#000000;stroke-width:20;stroke-linecap:round;stroke-linejoin:round;stroke-miterlimit:10;stroke-dasharray:none;stroke-opacity:1"
             id="path1434" /></g></g></g></g></svg>
