<svg id="Layer_2" enable-background="new 0 0 100 100" viewBox="0 0 100 100" xmlns="http://www.w3.org/2000/svg"><g><g><path d="m37.8981133 44.974781h-28.3214436c-3.9019914 0-7.0766683-3.174675-7.0766683-7.0766678v-28.3214445c0-3.9019918 3.1746769-7.0766687 7.0766683-7.0766687h28.3214436c3.9024849 0 7.0771637 3.1746769 7.0771637 7.0766687v28.3214455c-.0000001 3.9019918-3.1746789 7.0766668-7.0771637 7.0766668zm-28.3214436-38.238924c-1.5664101 0-2.8408113 1.2744007-2.8408113 2.8408117v28.3214455c0 1.5664101 1.2744012 2.8408127 2.8408113 2.8408127h28.3214436c1.5669022 0 2.8413048-1.2744026 2.8413048-2.8408127v-28.3214455c0-1.566411-1.2744026-2.8408117-2.8413048-2.8408117z"/></g><g><path d="m90.4233322 44.974781h-28.3214455c-3.9024849 0-7.0771637-3.174675-7.0771637-7.0766678v-28.3214445c.0000001-3.9019918 3.1746789-7.0766687 7.0771637-7.0766687h28.3214455c3.9019928 0 7.0766678 3.1746769 7.0766678 7.0766687v28.3214455c0 3.9019918-3.174675 7.0766668-7.0766678 7.0766668zm-28.3214455-38.238924c-1.5669022 0-2.8413048 1.2744007-2.8413048 2.8408117v28.3214455c0 1.5664101 1.2744026 2.8408127 2.8413048 2.8408127h28.3214455c1.5664062 0 2.8408127-1.2744026 2.8408127-2.8408127v-28.3214455c0-1.566411-1.2744064-2.8408117-2.8408127-2.8408117z"/></g><g><path d="m37.8981133 97.5h-28.3214436c-3.9019914 0-7.0766683-3.174675-7.0766683-7.0766678v-28.3214455c0-3.9019928 3.1746769-7.0766678 7.0766683-7.0766678h28.3214436c3.9024849 0 7.0771637 3.174675 7.0771637 7.0766678v28.3214455c-.0000001 3.9019928-3.1746789 7.0766678-7.0771637 7.0766678zm-28.3214436-38.2389259c-1.5664101 0-2.8408113 1.2744026-2.8408113 2.8408127v28.3214455c0 1.5664062 1.2744012 2.8408127 2.8408113 2.8408127h28.3214436c1.5669022 0 2.8413048-1.2744064 2.8413048-2.8408127v-28.3214456c0-1.5664101-1.2744026-2.8408127-2.8413048-2.8408127h-28.3214436z"/></g><g><path d="m90.4233322 97.5h-28.3214455c-3.9024849 0-7.0771637-3.174675-7.0771637-7.0766678v-28.3214455c0-3.9019928 3.1746788-7.0766678 7.0771637-7.0766678h28.3214455c3.9019928 0 7.0766678 3.174675 7.0766678 7.0766678v28.3214455c0 3.9019928-3.174675 7.0766678-7.0766678 7.0766678zm-28.3214455-38.2389259c-1.5669022 0-2.8413048 1.2744026-2.8413048 2.8408127v28.3214455c0 1.5664062 1.2744026 2.8408127 2.8413048 2.8408127h28.3214455c1.5664062 0 2.8408127-1.2744064 2.8408127-2.8408127v-28.3214456c0-1.5664101-1.2744064-2.8408127-2.8408127-2.8408127h-28.3214455z"/></g></g></svg>