<svg id="Layer_1" viewBox="0 0 32 32" xmlns="http://www.w3.org/2000/svg" data-name="Layer 1"><g fill="none"><path d="m22.606 22.316a.719.719 0 1 0 .718-.718.72.72 0 0 0 -.718.718z"/><path d="m27.266 18.577v.835l1.767 1.554v-2.389a.884.884 0 1 0 -1.767 0z"/><path d="m23.531 27.392h-.285a1.111 1.111 0 0 0 -1.11 1.11v1.746h2.5v-1.748a1.111 1.111 0 0 0 -1.105-1.108z"/><path d="m22.648 18.538-5.035 4.428v6.634a.651.651 0 0 0 .65.65h2.373v-1.75a2.613 2.613 0 0 1 2.61-2.61h.285a2.613 2.613 0 0 1 2.61 2.61v1.746h2.244a.649.649 0 0 0 .649-.65v-6.632l-5.034-4.426a1.026 1.026 0 0 0 -1.352 0zm2.895 3.778a2.219 2.219 0 1 1 -2.219-2.216 2.221 2.221 0 0 1 2.219 2.216z"/></g><path d="m25.811 18.132-.821-.721a2.53 2.53 0 0 0 -3.332 0l-6.5 5.717a.747.747 0 0 0 .957 1.146v5.326a2.152 2.152 0 0 0 2.15 2.15h10.12a2.151 2.151 0 0 0 2.149-2.15v-5.327a.747.747 0 0 0 .959-1.144l-.959-.844v-3.708a2.382 2.382 0 0 0 -4.722-.445zm-1.17 12.116h-2.5v-1.748a1.111 1.111 0 0 1 1.11-1.11h.285a1.111 1.111 0 0 1 1.11 1.11zm4.393-.65a.649.649 0 0 1 -.649.65h-2.244v-1.748a2.613 2.613 0 0 0 -2.61-2.61h-.285a2.613 2.613 0 0 0 -2.61 2.61v1.746h-2.373a.651.651 0 0 1 -.65-.65v-6.63l5.035-4.428a1.026 1.026 0 0 1 1.352 0l5.034 4.426zm0-11.021v2.389l-1.767-1.554v-.835a.884.884 0 1 1 1.767 0z"/><path d="m21.106 22.316a2.219 2.219 0 1 0 2.218-2.216 2.221 2.221 0 0 0 -2.218 2.216zm2.937 0a.719.719 0 1 1 -.719-.718.72.72 0 0 1 .719.718z"/><path d="m4.167 31.741h9.533a.75.75 0 1 0 0-1.5h-9.533a2.418 2.418 0 0 1 -2.415-2.416v-23.658a2.418 2.418 0 0 1 2.415-2.415h21.671a2.418 2.418 0 0 1 2.415 2.415v9.449a.75.75 0 0 0 1.5 0v-9.449a3.92 3.92 0 0 0 -3.915-3.915h-21.671a3.92 3.92 0 0 0 -3.915 3.915v23.658a3.92 3.92 0 0 0 3.915 3.916z"/><path d="m7.312 8.531h14.888a.75.75 0 1 0 0-1.5h-14.888a.75.75 0 0 0 0 1.5z"/><path d="m19.278 13.6a.75.75 0 0 0 -.75-.75h-11.216a.75.75 0 0 0 0 1.5h11.216a.75.75 0 0 0 .75-.75z"/><path d="m7.312 18.667a.75.75 0 0 0 0 1.5h4.578a.75.75 0 0 0 0-1.5z"/></svg>