<svg id="Layer_1" enable-background="new 0 0 48 48" viewBox="0 0 48 48" xmlns="http://www.w3.org/2000/svg"><g><path d="m22.25 35.31h3.5v4.62h-3.5z"/><path d="m15.63 30.46.68 1.35 7.4-5.28c.09-.06.19-.09.29-.09s.2.03.29.09l7.4 5.28.68-1.35-8.37-6.27z"/><path d="m44 20h-3.79l-14.86-14.86c.09-.2.15-.41.15-.64 0-.83-.67-1.5-1.5-1.5s-1.5.67-1.5 1.5c0 .23.06.45.15.64l-14.86 14.86h-3.79c-.28 0-.5.22-.5.5v6c0 .28.22.5.5.5h.5l-.8.6c-.01.01-.01.02-.02.03-.03.02-.05.05-.07.08-.02.02-.04.05-.05.08s-.02.06-.03.09-.02.07-.02.1c0 .01-.01.02-.01.03v2c0 .01.01.02.01.04 0 .03.01.07.02.1s.02.06.03.09.03.05.05.08.04.05.06.07.05.03.07.05c.03.02.06.03.09.04.01 0 .02.01.03.02l.06.02-.06.02c-.01 0-.02.01-.03.02-.03.01-.06.03-.09.04-.03.02-.05.03-.07.05s-.04.05-.06.07-.04.05-.05.08-.02.06-.03.09-.02.06-.02.1c0 .01-.01.02-.01.04v1.36c0 .01.01.02.01.04 0 .05.01.11.03.15.01.03.04.06.05.08.02.03.03.05.05.08.04.04.09.08.15.1 0 0 0 0 .01.01l3.35 1.44-3.23.46c-.02 0-.04.02-.06.02-.03.01-.06.02-.09.03s-.05.03-.08.05-.05.04-.07.06-.04.05-.05.08c-.02.03-.03.05-.04.09-.01.03-.02.06-.02.1 0 .02-.01.04-.01.06v1.62c0 .02.01.03.01.05 0 .03.01.07.02.1s.02.06.04.09c.01.03.03.05.05.08s.04.05.07.07c.01.01.02.02.03.03l.38.22-.38.25c-.01.01-.02.02-.03.03-.03.02-.05.05-.07.07s-.04.05-.05.08-.03.06-.04.09-.02.06-.02.1c0 .02-.01.03-.01.05v6.33c0 .28.22.5.5.5h40c.28 0 .5-.22.5-.5v-6.33c0-.02-.01-.03-.01-.05 0-.03-.01-.07-.02-.1s-.02-.06-.04-.09c-.01-.03-.03-.05-.05-.08s-.04-.05-.07-.07c-.01-.01-.02-.02-.03-.03l-.38-.25.38-.25.03-.03c.03-.02.05-.05.07-.07s.04-.05.05-.08.03-.06.04-.09.02-.07.02-.1c0-.02.01-.03.01-.05v-1.62c0-.02-.01-.04-.01-.06 0-.03-.01-.07-.02-.1s-.03-.06-.04-.08c-.02-.03-.03-.05-.05-.08-.02-.02-.05-.04-.07-.06-.03-.02-.05-.04-.08-.05-.03-.02-.06-.02-.09-.03-.02-.01-.04-.02-.06-.02l-3.23-.46 3.35-1.44c.06-.03.12-.06.16-.11.02-.02.03-.04.04-.06.02-.03.05-.06.06-.1.02-.05.03-.1.03-.16 0-.01.01-.02.01-.03v-1.37c0-.01-.01-.02-.01-.04 0-.03-.01-.07-.02-.1s-.02-.06-.03-.09-.03-.05-.05-.08-.04-.05-.06-.07-.05-.03-.07-.05c-.03-.02-.06-.03-.09-.04-.01 0-.02-.01-.03-.02l-.06-.02.06-.02c.01 0 .02-.01.03-.02.03-.01.06-.03.09-.04.03-.02.05-.03.07-.05s.04-.05.06-.07c.02-.03.04-.05.05-.08s.02-.06.03-.09.02-.07.02-.1c0-.01.01-.02.01-.04v-2c0-.01-.01-.02-.01-.03 0-.03-.01-.07-.02-.1s-.02-.06-.03-.09-.03-.05-.05-.07c-.02-.03-.04-.06-.07-.08-.01-.01-.01-.02-.02-.03l-.8-.58h.5c.28 0 .5-.22.5-.5v-6c0-.28-.22-.5-.5-.5zm-20-16c.28 0 .5.22.5.5s-.22.5-.5.5-.5-.22-.5-.5.22-.5.5-.5zm-17 38.5c-.55 0-1-.45-1-1s.45-1 1-1 1 .45 1 1-.45 1-1 1zm0-18c-.55 0-1-.45-1-1s.45-1 1-1 1 .45 1 1-.45 1-1 1zm26.45 6.04-1.12 2.25c-.07.13-.18.23-.33.26-.04.01-.08.01-.12.01-.1 0-.21-.03-.29-.09l-.33-.24v7.71c0 .28-.22.5-.5.5h-4.5-4.5-4.5c-.28 0-.5-.22-.5-.5v-7.71l-.33.24c-.12.09-.27.11-.41.08-.14-.04-.26-.13-.33-.26l-1.12-2.25c-.11-.22-.05-.48.15-.62l9-6.75c.18-.13.42-.13.6 0l9 6.75c.17.14.24.4.13.62zm-24.24-10.54 14.15-14.15c.19.09.41.15.64.15s.45-.06.64-.15l14.15 14.15zm31.79 20.5c.55 0 1 .45 1 1s-.45 1-1 1-1-.45-1-1 .45-1 1-1zm0-16c-.55 0-1-.45-1-1s.45-1 1-1 1 .45 1 1-.45 1-1 1z"/><path d="m17.75 32.02v7.92h3.5v-5.12c0-.28.22-.5.5-.5h4.5c.28 0 .5.22.5.5v5.12h3.5v-7.92l-6.25-4.47z"/></g></svg>