<svg width="68" height="68" viewBox="0 0 68 68" fill="none" xmlns="http://www.w3.org/2000/svg">
<g filter="url(#filter0_d_2967_4334)">
<path d="M14 19.3333C14 16.3878 16.3878 14 19.3333 14H48.6667C51.6122 14 54 16.3878 54 19.3333V48.6667C54 51.6122 51.6122 54 48.6667 54H19.3333C16.3878 54 14 51.6122 14 48.6667V19.3333Z" fill="white"/>
<path d="M14.4047 50.7082C14.2291 50.2847 14.1064 49.8336 14.0451 49.3633L14.3756 49.3201C14.3477 49.1064 14.3333 48.8883 14.3333 48.6667V48H14V46.6667H14.3333V45.3333H14V44H14.3333V42.6667H14V41.3333H14.3333V40H14V38.6667H14.3333V37.3333H14V36H14.3333V34.6667H14V33.3333H14.3333V32H14V30.6667H14.3333V29.3333H14V28H14.3333V26.6667H14V25.3333H14.3333V24H14V22.6667H14.3333V21.3333H14V20H14.3333V19.3333C14.3333 19.1117 14.3477 18.8936 14.3756 18.6799L14.0451 18.6368C14.1064 18.1664 14.2291 17.7153 14.4047 17.2918L14.7126 17.4195C14.8811 17.0132 15.1017 16.6338 15.3662 16.2896L15.1019 16.0865C15.3858 15.717 15.717 15.3858 16.0865 15.1019L16.2896 15.3662C16.6338 15.1017 17.0132 14.8811 17.4195 14.7126L17.2918 14.4047C17.7153 14.2291 18.1664 14.1064 18.6368 14.0451L18.6799 14.3756C18.8936 14.3477 19.1117 14.3333 19.3333 14.3333H20V14H21.3333V14.3333H22.6667V14H24V14.3333H25.3333V14H26.6667V14.3333H28V14H29.3333V14.3333H30.6667V14H32V14.3333H33.3333V14H34.6667V14.3333H36V14H37.3333V14.3333H38.6667V14H40V14.3333H41.3333V14H42.6667V14.3333H44V14H45.3333V14.3333H46.6667V14H48V14.3333H48.6667C48.8883 14.3333 49.1064 14.3477 49.3201 14.3756L49.3633 14.0451C49.8336 14.1064 50.2847 14.2291 50.7082 14.4047L50.5805 14.7126C50.9868 14.8811 51.3662 15.1017 51.7104 15.3662L51.9135 15.1019C52.283 15.3858 52.6142 15.717 52.8981 16.0865L52.6338 16.2896C52.8983 16.6338 53.1189 17.0132 53.2874 17.4195L53.5953 17.2918C53.7709 17.7153 53.8936 18.1664 53.9549 18.6368L53.6244 18.6799C53.6523 18.8936 53.6667 19.1117 53.6667 19.3333V20H54V21.3333H53.6667V22.6667H54V24H53.6667V25.3333H54V26.6667H53.6667V28H54V29.3333H53.6667V30.6667H54V32H53.6667V33.3333H54V34.6667H53.6667V36H54V37.3333H53.6667V38.6667H54V40H53.6667V41.3333H54V42.6667H53.6667V44H54V45.3333H53.6667V46.6667H54V48H53.6667V48.6667C53.6667 48.8883 53.6523 49.1064 53.6244 49.3201L53.9549 49.3633C53.8936 49.8336 53.7709 50.2847 53.5953 50.7082L53.2874 50.5805C53.1189 50.9868 52.8983 51.3662 52.6338 51.7104L52.8981 51.9135C52.6142 52.283 52.283 52.6142 51.9135 52.8981L51.7104 52.6338C51.3662 52.8983 50.9868 53.1189 50.5805 53.2874L50.7082 53.5953C50.2847 53.7709 49.8336 53.8936 49.3633 53.9549L49.3201 53.6244C49.1064 53.6523 48.8883 53.6667 48.6667 53.6667H48V54H46.6667V53.6667H45.3333V54H44V53.6667H42.6667V54H41.3333V53.6667H40V54H38.6667V53.6667H37.3333V54H36V53.6667H34.6667V54H33.3333V53.6667H32V54H30.6667V53.6667H29.3333V54H28V53.6667H26.6667V54H25.3333V53.6667H24V54H22.6667V53.6667H21.3333V54H20V53.6667H19.3333C19.1117 53.6667 18.8936 53.6523 18.6799 53.6244L18.6367 53.9549C18.1664 53.8936 17.7153 53.7709 17.2918 53.5953L17.4195 53.2874C17.0132 53.1189 16.6338 52.8983 16.2896 52.6338L16.0865 52.8981C15.717 52.6142 15.3858 52.283 15.1019 51.9135L15.3662 51.7104C15.1017 51.3662 14.8811 50.9868 14.7126 50.5805L14.4047 50.7082Z" stroke="#949CA5" stroke-width="0.666667" stroke-dasharray="1.33 1.33"/>
</g>
<path d="M42.7301 26.2236H25.2699C24.5686 26.2236 24 26.7922 24 27.4935V40.5094C24 41.2106 24.5686 41.7792 25.2699 41.7792H42.7301C43.4314 41.7792 44 41.2106 44 40.5093V27.4935C44 26.7922 43.4315 26.2236 42.7301 26.2236ZM42.7301 27.4935V36.7287L40.2276 34.4534C39.8515 34.1115 39.273 34.1252 38.9137 34.4849L36.3809 37.0172L31.387 31.0522C31.0095 30.6014 30.3181 30.5969 29.9349 31.0423L25.2699 36.4639V27.4935H42.7301ZM37.3334 30.8268C37.3334 29.8623 38.1149 29.0807 39.0793 29.0807C40.0438 29.0807 40.8254 29.8623 40.8254 30.8268C40.8254 31.7912 40.0439 32.5728 39.0793 32.5728C38.1149 32.5728 37.3334 31.7912 37.3334 30.8268Z" fill="#949CA5"/>
<defs>
<filter id="filter0_d_2967_4334" x="0.666667" y="0.666667" width="66.6667" height="66.6667" filterUnits="userSpaceOnUse" color-interpolation-filters="sRGB">
<feFlood flood-opacity="0" result="BackgroundImageFix"/>
<feColorMatrix in="SourceAlpha" type="matrix" values="0 0 0 0 0 0 0 0 0 0 0 0 0 0 0 0 0 0 127 0" result="hardAlpha"/>
<feOffset/>
<feGaussianBlur stdDeviation="6.66667"/>
<feComposite in2="hardAlpha" operator="out"/>
<feColorMatrix type="matrix" values="0 0 0 0 0 0 0 0 0 0 0 0 0 0 0 0 0 0 0.3 0"/>
<feBlend mode="normal" in2="BackgroundImageFix" result="effect1_dropShadow_2967_4334"/>
<feBlend mode="normal" in="SourceGraphic" in2="effect1_dropShadow_2967_4334" result="shape"/>
</filter>
</defs>
</svg>
